<?xml version="1.0" encoding="UTF-8"?>
<svg id="Layer_1" data-name="Layer 1" xmlns="http://www.w3.org/2000/svg" viewBox="0 0 198.36 142.5">
  <path d="M77.98,29.02c0,.45-.11.11-.11.45h1.13v-15.26H0v15.26h1.13c0-.34-.11,0-.11-.45,0-7.57,14.24-12.68,33.68-12.68v46.15h8.61V16.35c19.44,0,34.68,5.1,34.68,12.68Z" fill="#000" stroke-width="0"/>
  <path id="H_btm_left" data-name="H btm left" d="M112.3,100.5c0,18.14-.55,24.68-8.47,24.68v.92h24.87v-.92c-7.92,0-8.47-6.54-8.47-24.68v-19h-7.92v19Z" fill="#000" stroke-width="0"/>
  <path d="M103.83,14v.92c7.92,0,8.47,6.54,8.47,24.68v22.89h7.92v-1.42c-.81-.64-1.35-1.53-1.62-2.51-.77-1.46-.84-3.32-.16-4.83.27-1.09.86-2.09,1.78-2.76v-11.36c0-18.14.55-24.68,8.47-24.68v-.92h-24.87Z" fill="#000" stroke-width="0"/>
  <path d="M174.2,39.61c0-18.14.55-24.68,8.47-24.68v-.92h-24.87v.92c7.92,0,8.47,6.54,8.47,24.68v22.89h7.92v-22.89Z" fill="#000" stroke-width="0"/>
  <path d="M174.2,100.5v-19h-7.92v19c0,18.14-.55,24.68-8.47,24.68v.92h24.87v-.92c-7.92,0-8.47-6.54-8.47-24.68Z" fill="#000" stroke-width="0"/>
  <polygon points="120.22 43.41 120.22 61.5 115.09 61.5 115.09 43.72 120.22 43.41" fill="#000" stroke-width="0"/>
  <g id="Name">
    <path d="M3.16,67.5H.59v-.93h7.2v.93h-3.57v9.22h-1.07v-9.22Z" fill="#000" stroke-width="0"/>
    <path d="M20.22,74.01h-5.65l-1.22,2.71h-1.12l4.64-10.15h1.06l4.64,10.15h-1.13l-1.22-2.71ZM19.83,73.14l-2.44-5.45-2.44,5.45h4.87Z" fill="#000" stroke-width="0"/>
    <path d="M35.48,66.57v10.15h-1.06v-4.68h-6.35v4.68h-1.07v-10.15h1.07v4.52h6.35v-4.52h1.06Z" fill="#000" stroke-width="0"/>
    <path d="M47.91,74.01h-5.65l-1.22,2.71h-1.12l4.64-10.15h1.06l4.64,10.15h-1.13l-1.22-2.71ZM47.52,73.14l-2.44-5.45-2.44,5.45h4.87Z" fill="#000" stroke-width="0"/>
    <path d="M59.81,73.21v3.51h-1.06v-3.51l-4.06-6.64h1.15l3.48,5.7,3.48-5.7h1.07l-4.06,6.64Z" fill="#000" stroke-width="0"/>
    <path d="M68.3,66.57h1.07v9.22h5.68v.93h-6.76v-10.15Z" fill="#000" stroke-width="0"/>
    <path d="M79.49,66.57h1.07v10.15h-1.07v-10.15Z" fill="#000" stroke-width="0"/>
    <path d="M92.8,74.01h-5.52l-1.19,2.71h-1.09l4.53-10.15h1.03l4.53,10.15h-1.1l-1.19-2.71ZM92.42,73.14l-2.38-5.45-2.38,5.45h4.76Z" fill="#000" stroke-width="0"/>
    <path d="M116.76,66.57v10.15h-1.06v-4.68h-6.35v4.68h-1.07v-10.15h1.07v4.52h6.35v-4.52h1.06Z" fill="#000" stroke-width="0"/>
    <path d="M124.28,66.57h1.07v10.15h-1.07v-10.15Z" fill="#000" stroke-width="0"/>
    <path d="M140.93,71.64h1.03v3.87c-.96.85-2.32,1.29-3.73,1.29-3.09,0-5.35-2.19-5.35-5.16s2.26-5.16,5.36-5.16c1.54,0,2.87.49,3.77,1.46l-.67.68c-.86-.84-1.87-1.19-3.06-1.19-2.51,0-4.35,1.78-4.35,4.2s1.84,4.2,4.33,4.2c.97,0,1.87-.22,2.65-.78v-3.42Z" fill="#000" stroke-width="0"/>
    <path d="M157.59,71.64h1.03v3.87c-.96.85-2.32,1.29-3.73,1.29-3.09,0-5.35-2.19-5.35-5.16s2.26-5.16,5.36-5.16c1.54,0,2.87.49,3.77,1.46l-.67.68c-.86-.84-1.87-1.19-3.06-1.19-2.51,0-4.35,1.78-4.35,4.2s1.84,4.2,4.33,4.2c.97,0,1.87-.22,2.65-.78v-3.42Z" fill="#000" stroke-width="0"/>
    <path d="M166.2,66.57h1.07v10.15h-1.07v-10.15Z" fill="#000" stroke-width="0"/>
    <path d="M183.28,66.57v10.15h-.88l-6.52-8.23v8.23h-1.07v-10.15h.88l6.54,8.23v-8.23h1.06Z" fill="#000" stroke-width="0"/>
    <path d="M190.81,75.48l.42-.83c.72.71,2.01,1.23,3.35,1.23,1.9,0,2.73-.8,2.73-1.8,0-2.78-6.25-1.07-6.25-4.83,0-1.49,1.16-2.78,3.74-2.78,1.14,0,2.33.33,3.15.9l-.36.86c-.87-.57-1.88-.84-2.78-.84-1.86,0-2.68.83-2.68,1.84,0,2.78,6.25,1.1,6.25,4.8,0,1.49-1.19,2.77-3.78,2.77-1.52,0-3.01-.54-3.77-1.32Z" fill="#000" stroke-width="0"/>
  </g>
  <g id="Btm_T" data-name="Btm T">
    <polygon id="Piece_right_btm" data-name="Piece right btm" points="43.3 113.97 43.45 113.97 43.53 115.07 43.65 116.08 42 116 42 114 43.3 113.97" fill="#000" stroke-width="0"/>
    <g id="Btm_T_right" data-name="Btm T right">
      <path id="T_left_btn_curve" data-name="T left btn curve" d="M42.83,100.79c.21,3.21.26,5.82.27,7.6,0,0,.05,7.81,1.11,11.71,0,0,.45,1.65,1.44,2.85.48.57,1.04,1,1.04,1,.31.24.58.39.68.44,1.11.61,2.25.7,3.32.77.27.02.48.03.61.03v.91h-1.43s-2.35,0-2.35,0c-.02,0-4.39,0-4.42,0-.08,0-7.72,0-7.84,0v-.91c7.92,0-.26,5.53-.26-12.41v-4.79s7.83-1,7.83-1v-6.21Z" fill="#000" stroke-width="0"/>
    </g>
    <g id="Btm_T_left" data-name="Btm T left">
      <polygon points="34.7 108.15 43.3 108.15 43.46 114.41 42.55 114.41 34.7 108.15" fill="#000" stroke-width="0"/>
      <path id="T_left_btn_curve-2" data-name="T left btn curve" d="M34.97,100.79c-.21,3.21-.26,5.82-.27,7.6,0,0-.05,7.81-1.11,11.71,0,0-.45,1.65-1.44,2.85-.48.57-1.04,1-1.04,1-.31.24-.58.39-.68.44-1.11.61-2.25.7-3.32.77-.27.02-.48.03-.61.03v.91h3.78s4.39,0,4.42,0c.08,0,7.72,0,7.84,0v-.91c-7.92,0,.26,5.53.26-12.41v-4.79l-7.83-1v-6.21Z" fill="#000" stroke-width="0"/>
      <g>
        <path d="M34.7,82h8.61v43.11h-8.61v-43.11Z" fill="#000" stroke-width="0"/>
        <rect id="tiny_top_piece_of_btm_T" data-name="tiny top piece of btm T" x="34.7" y="81.5" width="8.61" height=".5" fill="#000" stroke-width="0"/>
      </g>
    </g>
  </g>
  <g id="NEW-Line">
    <path d="M90,79.48c0,20.67,0,41.35,0,62.02" fill="#000" stroke="#000" stroke-miterlimit="10" stroke-width=".5"/>
    <path d="M90,.5v61.95" fill="#000" stroke="#000" stroke-miterlimit="10" stroke-width=".5"/>
  </g>
</svg>